<?xml version="1.0" encoding="UTF-8"?>
<svg id="Layer_2" data-name="Layer 2" xmlns="http://www.w3.org/2000/svg" viewBox="0 0 991.95 991.95">
  <defs>
    <style>
      .cls-1 {
        fill: #171c22;
        stroke-width: 0px;
      }

      .cls-2 {
        fill: #fee46b;
        stroke: #ffe983;
        stroke-linecap: round;
        stroke-linejoin: round;
        stroke-width: 4px;
      }
    </style>
  </defs>
  <g id="Layer_1-2" data-name="Layer 1">
    <g>
      <rect class="cls-2" x="2" y="2" width="987.95" height="987.95" rx="10.36" ry="10.36"/>
      <g>
        <path class="cls-1" d="M408.7,476.83c.63.28,4.24-10.55,14.68-19.9,3.4-3.04,6.14-4.7,9.19-5.71,4.04-1.34,8.4-1.47,13.06-.55,20.95,4.13,41.13,10.92,61.06,18.41,7.54,2.83,14.28,7.3,15.94,16.21,1.42,7.66,2.19,10.46,4.47,25.69,2.56,17.12,4.81,16.77,5.5,27.9.43,7.02,1.62,26.35-6.6,29.85-6.41,2.72-15.54-5.44-18.56-8.13-10.97-9.8-14.35-23.56-14.59-24.58-2.22-9.52-4.41-15.14-7.31-23.73-.57-1.68-2.44-2.02-3.43-2.65-9.66-6.13-40.1-21.11-48.77-11.53-2.94,3.25-.07,5.67-2.12,13.13-4.61,16.82-23.69,21.1-22.27,27.8,1.26,5.97,16.38,2.74,27.34,14.76,4.56,5.01,8.57,12.84,6.08,16.54-3.18,4.72-15.92,1.19-16.04,1.91-.12.75,13.95,3.56,15.46,3.86,3.37.68,30.63,2.88,51.46,21.15,11.45,10.04,22.86,20.21,33.45,31.13,6.86,7.07,12.81,14.82,17.81,23.19,5.31,8.9,8.34,16.61,9.43,19.5,3.62,9.58,4.67,16.06,4.97,16,.45-.1.14-15.92-7.32-33.24-.6-1.4-6.44-11.75-18.09-32.41-2.07-3.68-4-7.43-6.06-11.11-8-14.29-11.45-19-9.81-21.01,1.68-2.06,6.48,1.49,16.45-.15,2.09-.35,3.95-.67,6.14-1.76,3.98-2,6.95-5.48,9.01-9.86,2.88-6.11,5.33-12.43,8.07-18.61,1.65-3.73,3.36-7.44,5.26-11.04,1.52-2.87,3.82-3.61,7.26-2.1,4.83,2.12,9.79,3.9,14.9,5.2,7.85,1.99,12.65,6.38,14.72,14.03,4.71,17.47,9.96,34.79,14.67,52.26,4.25,15.79,1.82,31.19-3.97,46.17-7.59,19.63-15.08,39.3-23.07,58.77-1.21,2.96-1.77,12.14-4.99,30.03-.73,4.07-2.89,8.07-4.04,10.42-8.55,17.44-36.84,28.31-61.39,27.9-35.11-.59-57.38-24.16-62.8-29.9-5.5-5.82-12.57-13.3-16.39-25.23-3.95-12.35-.91-18.52-4.3-31.55-3.16-12.15-9.17-19.99-15.36-27.93-25.43-32.65-35.99-48.7-42.06-59.02-3.85-6.54-6.53-11.12-9.85-17.14-13.82-25.08-20.75-37.87-22.09-50.34-.81-7.52-.65-20.07,6.97-36.13,16.41-18.1,27.59-34.14,34.82-45.54,0,0,14.67-20.26,40.36-51.41,6.86-8.32,16.64-11.86,27.27-8.81,28.39,8.17,56.62,16.91,84.91,25.44,1.09.33,2.13.84,3.21,1.22,9.48,3.34,16.08,9.39,20.65,18.65,10.34,20.93,41.26,51.14,39.68,67.23-.2,2.01-.78,7.98-4.03,9.12-.97.34-1.86.09-2.23.05-8.36-.9-15.88-4.47-23.06-8.74-12.34-7.34-21.85-17.69-30.6-28.83-8.04-10.24-16.58-20.18-28.45-25.94-8.54-4.15-17.71-7.16-26.82-9.93-13.27-4.04-26.63-7.91-40.16-10.93-5.41-1.21-10.37-.95-14.79.6-7.13,2.5-11.24,7.98-14.41,12.28-6.83,9.27-8.98,18.77-8.4,19.02Z"/>
        <path class="cls-1" d="M465.74,397.3c-1.28-8.4,14.89-20.98,28.64-31.81,28.88-22.75,25.06-20.6,28.56-22.71,25.95-15.6,48.66-16.91,74.34-32.48,11.7-7.09,23.33-14.33,34.94-21.65,9.6-6.06,14.21-3.33,15.02,9.33.94,14.6-3.7,27.15-11.87,38.1-9.91,13.28-22.59,22.71-35.41,31.85-8.97,6.39-18.21,12.32-27.48,18.14-3.96,2.48-8.15,4.45-12.45,6.06-10.85,4.05-20.36,10.35-27.57,20.43-1.63,2.28-3.19,3.68-5.04,4.18-2.58.71-4.95-.38-5.92-.82-2.01-.9-10.3-2.98-26.89-7.13-8.33-2.08-12.5-3.13-14.64-3.27-4.51-.3-8.15.1-11.08-2.45,0,0-2.59-2.14-3.15-5.78Z"/>
        <path class="cls-1" d="M443.33,393.53c-9.74-8.55-9.9-31.63-3.96-53.05.47-1.7.44-5.87,4.25-12.31,14.79-25.03,30.61-49.83,44.7-75.01,8.51-15.22,14.63-30.95,21.57-46.49,2.39-5.36,4.65-6.5,11-4.13,12.36,4.62,18.66,12.74,21.44,22.57,3.61,12.76-.62,24.84-3.81,33.99-19.01,54.49-19.41,59.16-27.77,67.82-4.26,4.41-10.97,9.97-17.68,16.06-16.8,15.24-15.89,12.9-22.3,19.72-7.5,7.98-11.25,11.97-13.93,17.29-3.75,7.44-5.26,15.01-9.41,15.38-.64.06-2.01,0-4.1-1.83Z"/>
        <path class="cls-1" d="M569.57,435.22c1.39-8.53,2.73-17.08,4.2-25.6.19-1.11.68-2.05,1.11-3.12,4.84-12.08,14.59-15.77,32.47-29.1,11.23-8.37,15.88-13.25,24.13-13.44,4.86-.11,7.77,1.48,8.7,2.03,6.03,3.61,7.45,10.86,7.93,13.28,2.05,10.42-4.42,17.48-9.39,31.03-7.68,20.95-16.07,41.63-23.88,62.53-4.18,11.17-9.6,9.88-15.93,2.67-4.55-5.18-8.57-10.83-13.01-16.11-1.87-2.23-3.94-4.52-6.39-6.01-6.89-4.19-9.78-10.17-9.94-18.15Z"/>
      </g>
    </g>
  </g>
</svg>